<?xml version="1.0" standalone="no"?>
<!DOCTYPE svg PUBLIC "-//W3C//DTD SVG 20010904//EN"
 "http://www.w3.org/TR/2001/REC-SVG-20010904/DTD/svg10.dtd">
<svg version="1.0" xmlns="http://www.w3.org/2000/svg"
 width="349.000000pt" height="349.000000pt" viewBox="0 0 349.000000 349.000000"
 preserveAspectRatio="xMidYMid meet">
<metadata>
Created by potrace 1.14, written by Peter Selinger 2001-2017
</metadata>
<g transform="translate(0.000000,349.000000) scale(0.100000,-0.100000)"
fill="#000000" stroke="none">
<path d="M1710 3315 c0 -27 -4 -28 -106 -27 -37 0 -43 -3 -47 -27 l-5 -26 -91
2 c-89 2 -91 2 -97 -22 -6 -25 -11 -27 -76 -27 -22 -1 -28 -5 -28 -24 0 -20
-5 -23 -47 -26 -29 -2 -48 -8 -49 -15 -1 -7 -3 -16 -4 -20 -1 -5 -2 -11 -2
-14 1 -3 -10 -4 -23 -1 -21 4 -25 1 -25 -22 0 -25 -3 -26 -50 -26 -28 0 -49
-3 -49 -7 4 -27 -4 -42 -23 -45 -20 -3 -23 -9 -23 -50 0 -25 -2 -46 -5 -45
-18 4 -50 -17 -50 -34 0 -16 -8 -19 -57 -20 -32 -1 -66 -1 -75 0 -11 1 -18 -7
-20 -25 -3 -27 -4 -27 -71 -27 -70 0 -91 11 -80 39 4 10 -7 13 -44 11 -42 -2
-48 -5 -51 -26 -3 -17 0 -22 11 -18 24 9 37 -8 40 -54 2 -37 5 -44 25 -47 19
-3 22 -9 22 -53 l0 -51 48 3 c44 3 47 2 50 -23 3 -21 -1 -27 -20 -30 -16 -2
-23 -9 -22 -24 0 -15 -7 -21 -28 -22 -24 -2 -28 1 -28 24 0 20 -4 25 -22 24
-59 -5 -77 0 -80 23 -2 14 -10 22 -23 22 -19 0 -20 -7 -21 -122 -1 -123 -1
-123 22 -123 22 0 24 -4 24 -50 0 -35 4 -50 13 -49 28 4 37 -2 37 -26 0 -20
-5 -25 -25 -25 -20 0 -25 -5 -25 -25 0 -20 -5 -25 -25 -25 -20 0 -25 -5 -25
-25 0 -26 -10 -30 -75 -26 -49 3 -75 -7 -75 -29 0 -17 7 -20 49 -20 44 0 50
-3 53 -22 3 -23 8 -25 71 -27 22 -1 27 -6 27 -27 0 -23 4 -25 33 -24 64 4 69
2 65 -27 -2 -23 -7 -27 -26 -25 -12 2 -22 0 -21 -5 5 -26 -4 -42 -23 -45 -15
-2 -24 -11 -26 -25 -3 -23 -10 -26 -69 -25 -28 0 -33 -3 -33 -24 0 -14 5 -24
13 -23 6 1 29 1 50 0 32 -1 37 -4 37 -25 0 -22 4 -24 48 -24 105 -1 102 0 102
-27 0 -15 5 -25 13 -24 32 4 37 -2 37 -51 0 -47 -2 -50 -25 -50 -20 0 -25 -5
-25 -24 0 -18 -6 -25 -23 -28 -21 -3 -22 -8 -24 -98 -3 -93 -2 -96 20 -98 17
-1 23 4 24 19 2 26 6 30 32 32 18 1 21 8 21 49 0 45 2 48 25 48 14 0 25 -6 26
-12 0 -7 1 -109 1 -225 l1 -213 24 0 c22 0 27 -9 24 -37 -1 -6 11 -13 25 -15
26 -3 27 -6 27 -50 -1 -44 1 -48 24 -48 23 0 24 3 23 57 -3 92 -2 93 24 93 23
0 23 0 23 122 l0 123 26 3 c26 3 27 1 28 -45 2 -94 3 -98 27 -101 23 -4 24 -6
24 -99 0 -49 2 -53 24 -53 25 0 26 -2 26 -85 0 -110 -1 -113 -24 -117 -22 -3
-23 -7 -25 -128 -1 -69 -2 -135 -2 -147 -1 -20 -6 -23 -39 -23 l-39 0 0 -50
c0 -35 4 -50 14 -50 15 0 16 -9 14 -94 -2 -48 1 -57 13 -53 20 8 47 -19 40
-38 -5 -13 84 -14 668 -12 666 2 673 2 673 22 0 13 8 21 23 23 13 2 26 11 29
20 2 9 9 26 14 37 12 28 8 193 -5 198 -7 3 -10 40 -9 101 2 94 2 96 -21 96
-29 0 -35 6 -29 31 3 11 14 19 27 19 20 0 22 5 22 48 -1 41 -4 47 -23 50 -15
2 -23 11 -24 23 0 10 0 48 0 84 0 148 -1 142 26 147 22 5 25 2 26 -26 1 -17 0
-41 -1 -53 -1 -19 3 -23 24 -21 20 2 26 8 26 24 0 16 7 24 22 26 19 3 23 10
25 47 2 45 15 63 40 54 9 -3 13 3 13 20 0 19 6 26 23 29 22 3 23 6 26 75 1 14
8 23 24 25 14 2 23 11 25 26 3 19 19 28 45 23 5 -1 7 9 5 21 -2 18 3 24 27 28
17 3 29 9 28 13 -2 4 -3 25 -3 46 0 33 4 40 23 43 16 2 22 10 23 28 3 65 4 69
27 72 21 3 22 8 25 101 3 96 3 97 27 97 14 0 24 3 24 8 -5 29 3 42 26 42 l25
0 0 100 c0 102 2 107 41 102 4 -1 6 42 5 96 -1 93 -2 97 -23 100 -17 3 -23 10
-23 28 0 24 -3 25 -47 23 -44 -3 -48 -1 -53 21 -3 15 -13 26 -25 28 -27 5 -26
3 -26 53 -2 96 -1 99 27 99 21 0 25 4 22 22 -2 13 -11 24 -23 27 -27 5 -35 21
-22 43 7 11 19 16 29 12 14 -4 18 0 18 21 0 22 -4 26 -20 22 -22 -6 -34 19
-32 69 1 26 -2 31 -21 30 -19 -1 -23 5 -27 49 -4 42 -9 50 -29 55 -24 5 -25 9
-24 78 0 47 -4 72 -11 71 -28 -3 -36 3 -36 26 0 15 -5 25 -12 24 -28 -3 -37 2
-40 24 -3 19 -10 22 -50 25 -46 3 -55 11 -49 45 1 4 -4 7 -11 6 -30 -4 -38 2
-38 27 0 23 -4 25 -32 24 -62 -4 -68 -1 -68 25 0 15 -5 25 -12 24 -28 -3 -36
2 -42 26 -4 16 -13 25 -25 25 -13 0 -21 8 -23 23 -3 21 -7 22 -116 24 -131 2
-142 4 -135 32 5 21 2 21 -171 21 l-176 0 0 -25z"/>
</g>
</svg>
